<?xml version="1.0" encoding="UTF-8"?>
<svg id="a" xmlns="http://www.w3.org/2000/svg" width="14.46mm" height="14.29mm" viewBox="0 0 41 40.5">
<path d="M0,17.29V0c13.67,0,27.33,0,41,0,0,13.5,0,27,0,40.5-13.67,0-27.33,0-41,0,0-7.41,0-14.82,0-22.23,2.12.99,3.51,3.15,5.99,3.63.43.08.8,1.27.12,1.28-1.91.05-2.12,1.97-3.43,2.6-.54.26-.97.71-.69,1.39.23.55.79.54,1.27.58,1.92.14,3.8.62,6.42.17-2.06,2.59-2.1,4.9-2.19,8.19,1.88-2.13,4.72-1.48,5.48-4.36,2.59,1.88,1.06,5.43,3.29,7.69,1.12-1.75,3.74-2.46,3.03-5.62,3.67-.02,2.98,4.89,6.16,5.34.49-1.95,1.65-3.75,1.45-5.89-.09-.99.26-1.7,1.17-.8,1.49,1.47,3.72,1.21,5.48,3.1-.16-2.56.54-4.66-1.21-6.26-.43-.39-1.1-.44-.57-1.19.35-.49.72-.73,1.44-.67,1.65.15,3.31.15,4.97.14.97,0,1.52-.53.81-1.4-.87-1.06-1.8-2.51-2.96-2.81-2.53-.65-1.92-2.02-1.4-3.61.4.36.41,1.5,1.27.87,1.39-1.02,3.89-.87,3.95-3.61-1.9-.09-3.15-1.87-5.29-1.67-.07.58-.14,1.17-.24,2.04-2.45-4.02,2.85-5.3,2.35-8.51-1.73.07-3.75-.44-5.36.75-.67.49-.86.75-1.42.1-.43-.49-1-.61-.48-1.7.77-1.63.59-3.6.18-5.78-1.52,1.29-3.51,1.53-4.27,3.22-.37.82-.52,1.25-1.51.96-.88-.26-1.63-.27-1.71-1.61-.09-1.7-.8-3.32-2.46-4.35-1.49,1.26-2.3,2.82-2.41,4.71-.02.41.63.89-.14,1.22-.64.28-1.01-.03-1.49-.47-.97-.88-2.04-1.66-3.12-2.4-.58-.4-1.22-1.07-2-.51-.63.45-.39,1.19-.33,1.84.14,1.52.28,3.03.43,4.63-1.88-.1-3.6-.21-5.32-.27-.6-.02-1.79-.16-1.42.72.74,1.72,1.06,4,3.63,4.28-.71,1.91-1.88,2.39-7.47,3.06Z"/>
<path d="M0,17.29c5.59-.67,6.76-1.15,7.47-3.06-2.57-.28-2.89-2.56-3.63-4.28-.38-.87.82-.74,1.42-.72,1.72.06,3.44.17,5.32.27-.15-1.59-.29-3.11-.43-4.63-.06-.65-.3-1.39.33-1.84.79-.55,1.42.11,2,.51,1.08.74,2.16,1.52,3.12,2.4.48.44.86.75,1.49.47.76-.33.11-.81.14-1.22.11-1.89.92-3.45,2.41-4.71,1.66,1.02,2.36,2.64,2.46,4.35.07,1.34.82,1.35,1.71,1.61.99.29,1.15-.14,1.51-.96.76-1.69,2.74-1.93,4.27-3.22.41,2.18.59,4.14-.18,5.78-.51,1.08.06,1.21.48,1.7.56.64.75.39,1.42-.1,1.61-1.18,3.63-.68,5.36-.75.5,3.22-4.8,4.49-2.35,8.51.1-.86.17-1.46.24-2.04,2.14-.2,3.39,1.57,5.29,1.67-.06,2.73-2.56,2.59-3.95,3.61-.86.63-.87-.5-1.27-.87-.52,1.6-1.13,2.96,1.4,3.61,1.16.3,2.09,1.75,2.96,2.81.71.86.16,1.39-.81,1.4-1.66.01-3.32.01-4.97-.14-.72-.07-1.1.17-1.44.67-.53.75.15.8.57,1.19,1.75,1.6,1.06,3.7,1.21,6.26-1.76-1.89-3.99-1.63-5.48-3.1-.91-.9-1.26-.19-1.17.8.2,2.14-.96,3.94-1.45,5.89-3.17-.45-2.48-5.36-6.16-5.34.71,3.16-1.91,3.87-3.03,5.62-2.24-2.26-.7-5.81-3.29-7.69-.76,2.88-3.6,2.24-5.48,4.36.09-3.29.13-5.59,2.19-8.19-2.63.44-4.5-.03-6.42-.17-.49-.04-1.05-.02-1.27-.58-.28-.68.15-1.13.69-1.39,1.31-.63,1.52-2.56,3.43-2.6.68-.02.31-1.2-.12-1.28-2.48-.48-3.87-2.63-5.99-3.63v-.99ZM20.26,7.33c-7.59.12-12.57,5.4-12.7,12.9-.14,8.06,6.95,12.73,12.84,12.68,6.36-.05,13.17-5.3,12.77-13.6-.32-6.73-5.88-12.1-12.91-11.99Z" fill="#e0653d"/>
<path d="M20.26,7.33c7.03-.11,12.59,5.26,12.91,11.99.4,8.29-6.41,13.54-12.77,13.6-5.89.05-12.97-4.63-12.84-12.68.13-7.5,5.1-12.78,12.7-12.9ZM9.67,17.1c2.31-3.1,2.8-3.12,5.81-.36,1.01-1.09.34-1.95-.43-2.7-1.23-1.2-2.77-1.06-4.16-.48-1.39.58-1.75,1.82-1.22,3.54ZM23.11,22.96c-1.82,3.35-3.64,2.26-5.36.05-.85,1.27-.38,2.1.56,2.6,1.45.77,3.03.89,4.51.05.82-.47,1.4-1.17.29-2.69ZM25.25,17.27c2.24-4.48,4.09-2.03,5.91-.09.74-1.71-.02-2.65-1.06-3.37-1.16-.81-2.56-.92-3.75-.24-1.05.61-1.74,1.65-1.1,3.69ZM25.92,23.61c2.12.93,3.77.55,5.18-.83.3-.29-.02-.8-.46-.95-1.95-.67-3.51-.22-4.72,1.77ZM9.22,22.49c1.71,1.16,2.9,2.4,4.73,1.24.54-.34.56-.77.15-1.21-1.42-1.5-2.92-.97-4.88-.04ZM12.18,16.86c-.79.19-.85.83-.79,1.51.06.71.31,1.35,1.19,1.2.79-.13,1.01-.78.96-1.49-.05-.78-.53-1.15-1.36-1.22ZM29.64,18.15c-.11-.7-.49-1.22-1.26-1.18-.8.04-1.08.65-1.02,1.36.06.69.37,1.3,1.19,1.22.77-.07,1.02-.69,1.09-1.4ZM21.23,20.06c-.12-.42-.37-.72-.83-.67-.49.05-.98.24-.92.84.07.58.56.72,1.07.65.45-.06.67-.38.68-.82Z"/>
<path d="M9.67,17.1c-.53-1.72-.17-2.96,1.22-3.54,1.38-.58,2.93-.71,4.16.48.77.75,1.45,1.6.43,2.7-3.01-2.76-3.5-2.74-5.81.36Z" fill="#e0653d"/>
<path d="M23.11,22.96c1.11,1.52.54,2.23-.29,2.69-1.48.84-3.05.72-4.51-.05-.95-.5-1.41-1.33-.56-2.6,1.71,2.22,3.53,3.31,5.36-.05Z" fill="#e0653d"/>
<path d="M25.25,17.27c-.65-2.04.04-3.09,1.1-3.69,1.19-.68,2.59-.58,3.75.24,1.03.73,1.79,1.66,1.06,3.37-1.82-1.94-3.67-4.39-5.91.09Z" fill="#e0653d"/>
<path d="M25.92,23.61c1.21-2,2.77-2.44,4.72-1.77.44.15.76.66.46.95-1.41,1.37-3.06,1.76-5.18.83Z" fill="#e0653d"/>
<path d="M9.22,22.49c1.96-.93,3.46-1.46,4.88.04.41.43.38.87-.15,1.21-1.83,1.16-3.02-.08-4.73-1.24Z" fill="#e0653d"/>
<path d="M12.18,16.86c.83.07,1.31.44,1.36,1.22.05.72-.17,1.36-.96,1.49-.88.15-1.13-.49-1.19-1.2-.06-.68,0-1.32.79-1.51Z" fill="#e0653d"/>
<path d="M29.64,18.15c-.07.71-.31,1.33-1.09,1.4-.82.08-1.13-.54-1.19-1.22-.07-.71.21-1.32,1.02-1.36.76-.04,1.15.48,1.26,1.18Z" fill="#e0653d"/>
<path d="M21.23,20.06c-.01.45-.23.76-.68.82-.51.07-1-.06-1.07-.65-.07-.6.42-.79.92-.84.47-.05.72.25.83.67Z" fill="#e0653d"/>
</svg>