<svg width="253" height="166" viewBox="0 0 253 166" fill="none" xmlns="http://www.w3.org/2000/svg">
<g clip-path="url(#clip0_148_134)">
<path d="M126.289 174.709C153.141 174.709 174.909 152.941 174.909 126.089C174.909 99.2373 153.141 77.4696 126.289 77.4696C99.4372 77.4696 77.6694 99.2373 77.6694 126.089C77.6694 152.941 99.4372 174.709 126.289 174.709Z" stroke="white" stroke-width="3" stroke-miterlimit="10"/>
<path d="M63.5457 126.012H1.1571" stroke="white" stroke-width="3" stroke-miterlimit="10" stroke-linecap="round"/>
<path d="M71.9923 94.648L17.9653 63.4537" stroke="white" stroke-width="3" stroke-miterlimit="10" stroke-linecap="round"/>
<path d="M94.9869 71.7074L63.7926 17.6805" stroke="white" stroke-width="3" stroke-miterlimit="10" stroke-linecap="round"/>
<path d="M126.374 63.3458V0.957153" stroke="white" stroke-width="3" stroke-miterlimit="10" stroke-linecap="round"/>
<path d="M157.738 71.7923L188.932 17.7653" stroke="white" stroke-width="3" stroke-miterlimit="10" stroke-linecap="round"/>
<path d="M180.671 94.7869L234.706 63.5926" stroke="white" stroke-width="3" stroke-miterlimit="10" stroke-linecap="round"/>
<path d="M189.041 126.174H251.429" stroke="white" stroke-width="3" stroke-miterlimit="10" stroke-linecap="round"/>
<path d="M180.594 157.538L234.621 188.732" stroke="white" stroke-width="3" stroke-miterlimit="10" stroke-linecap="round"/>
<path d="M71.9074 157.391L17.8805 188.586" stroke="white" stroke-width="3" stroke-miterlimit="10" stroke-linecap="round"/>
<path d="M44.9557 104.213L5.44604 93.6221" stroke="white" stroke-width="3" stroke-miterlimit="10" stroke-linecap="round"/>
<path d="M65.7055 109.775L56.2948 107.252" stroke="white" stroke-width="3" stroke-miterlimit="10" stroke-linecap="round"/>
<path d="M66.7932 66.4698L37.8667 37.551" stroke="white" stroke-width="3" stroke-miterlimit="10" stroke-linecap="round"/>
<path d="M81.9816 81.6658L75.0933 74.7775" stroke="white" stroke-width="3" stroke-miterlimit="10" stroke-linecap="round"/>
<path d="M104.567 44.7094L93.9841 5.19965" stroke="white" stroke-width="3" stroke-miterlimit="10" stroke-linecap="round"/>
<path d="M110.129 65.4593L107.614 56.0563" stroke="white" stroke-width="3" stroke-miterlimit="10" stroke-linecap="round"/>
<path d="M148.173 44.7556L158.756 5.24591" stroke="white" stroke-width="3" stroke-miterlimit="10" stroke-linecap="round"/>
<path d="M142.611 65.5055L145.134 56.0948" stroke="white" stroke-width="3" stroke-miterlimit="10" stroke-linecap="round"/>
<path d="M185.909 66.5933L214.835 37.6668" stroke="white" stroke-width="3" stroke-miterlimit="10" stroke-linecap="round"/>
<path d="M170.72 81.7815L177.601 74.8932" stroke="white" stroke-width="3" stroke-miterlimit="10" stroke-linecap="round"/>
<path d="M207.669 104.367L247.186 93.7841" stroke="white" stroke-width="3" stroke-miterlimit="10" stroke-linecap="round"/>
<path d="M186.927 109.929L196.33 107.414" stroke="white" stroke-width="3" stroke-miterlimit="10" stroke-linecap="round"/>
<path d="M207.63 147.973L247.14 158.556" stroke="white" stroke-width="3" stroke-miterlimit="10" stroke-linecap="round"/>
<path d="M186.88 142.411L196.284 144.934" stroke="white" stroke-width="3" stroke-miterlimit="10" stroke-linecap="round"/>
<path d="M44.9094 147.811L5.39966 158.402" stroke="white" stroke-width="3" stroke-miterlimit="10" stroke-linecap="round"/>
<path d="M65.6594 142.249L56.2563 144.772" stroke="white" stroke-width="3" stroke-miterlimit="10" stroke-linecap="round"/>
</g>
<defs>
<clipPath id="clip0_148_134">
<rect width="253" height="166" fill="white"/>
</clipPath>
</defs>
</svg>
