<svg width="49" height="48" viewBox="0 0 49 48" fill="none" xmlns="http://www.w3.org/2000/svg">
<path d="M0.699951 8C0.699951 3.58172 4.28167 0 8.69995 0H49V48H8.69994C4.28166 48 0.699951 44.4183 0.699951 40V8Z" fill="#111111"/>
<g clip-path="url(#clip0_91_506)">
<path d="M27.9228 21.5429L39.9472 8H37.0978L26.6571 19.7591L18.318 8H8.69995L21.3102 25.7818L8.69995 39.9836H11.5495L22.5753 27.5656L31.3819 39.9836H41L27.9221 21.5429H27.9228ZM24.02 25.9385L22.7423 24.1678L12.5762 10.0784H16.953L25.1571 21.449L26.4348 23.2197L37.0992 37.9997H32.7224L24.02 25.9391V25.9385Z" fill="white"/>
</g>
<defs>
<clipPath id="clip0_91_506">
<rect width="32.3" height="32" fill="white" transform="translate(8.69995 8)"/>
</clipPath>
</defs>
</svg>
